<svg xmlns="http://www.w3.org/2000/svg" viewBox="0 0 64 64">
  <rect width="64" height="64" rx="12" fill="#0f1f15"/>
  <circle cx="32" cy="32" r="22" fill="none" stroke="#a3c585" stroke-width="2" opacity="0.5"/>
  <circle cx="32" cy="32" r="14" fill="none" stroke="#a3c585" stroke-width="1.5" opacity="0.7"/>
  <g transform="translate(32,32) rotate(35)">
    <path d="M0,-12 L2,-4 L2,5 L4,8 L4,10 L1,9 L1,12 L2,13 L2,14 L0,13 L-2,14 L-2,13 L-1,12 L-1,9 L-4,10 L-4,8 L-2,5 L-2,-4 Z" fill="#a3c585"/>
    <path d="M-10,1 L-2,-1 L-2,3 L-10,3 Z" fill="#a3c585"/>
    <path d="M10,1 L2,-1 L2,3 L10,3 Z" fill="#a3c585"/>
  </g>
</svg>
